Coordinates
version=1
nRows=10
nColumns=69
inDegrees=yes

Units are S.I. units (second, meters, Newtons, ...)
If the header above contains a line with 'inDegrees', this indicates whether rotational values are in degrees (yes) or radians (no).

endheader
time	pelvis_tilt	pelvis_list	pelvis_rotation	pelvis_tx	pelvis_ty	pelvis_tz	hip_flexion_r	hip_adduction_r	hip_rotation_r	knee_angle_r	knee_angle_r_beta	ankle_angle_r	subtalar_angle_r	mtp_angle_r	hip_flexion_l	hip_adduction_l	hip_rotation_l	knee_angle_l	knee_angle_l_beta	ankle_angle_l	subtalar_angle_l	mtp_angle_l	L5_S1_Flex_Ext	L5_S1_Lat_Bending	L5_S1_axial_rotation	L4_L5_Flex_Ext	L4_L5_Lat_Bending	L4_L5_axial_rotation	L3_L4_Flex_Ext	L3_L4_Lat_Bending	L3_L4_axial_rotation	L2_L3_Flex_Ext	L2_L3_Lat_Bending	L2_L3_axial_rotation	L1_L2_Flex_Ext	L1_L2_Lat_Bending	L1_L2_axial_rotation	L1_T12_Flex_Ext	L1_T12_Lat_Bending	L1_T12_axial_rotation	Abs_r3	Abs_r2	Abs_r1	Abs_t1	Abs_t2	neck_flexion	neck_bending	neck_rotation	sh_tx_r	sh_ty_r	sh_tz_r	sh_plane_elev_r	sh_elev_r	sh_axial_rot_r	elbow_flex_r	pro_sup_r	wrist_flex_r	wrist_dev_r	sh_tx_l	sh_ty_l	sh_tz_l	sh_plane_elev_l	sh_elev_l	sh_axial_rot_l	elbow_flex_l	pro_sup_l	wrist_flex_l	wrist_dev_l
      0.83333330	    -33.83437331	      5.16415468	    -86.23149933	     -0.10365463	      0.93009013	     -1.00127332	     33.35826483	    -18.83997298	    -13.31257077	     35.92782771	      0.62705889	     -8.34797062	      2.10267598	      0.00000000	     33.34708720	    -29.70019325	     25.93215080	     54.08522349	      0.94396523	     24.79234385	    -13.27552272	      0.00000000	     -0.04333287	     -1.58111225	     -0.17597556	     -0.08047347	     -2.10287930	     -0.18697404	     -0.07119157	     -3.84431634	     -0.18697404	     -0.04952514	     -3.84431634	     -0.15397862	     -0.04023890	     -3.22420411	     -0.14298015	     -0.02476040	     -2.44914288	     -0.13198167	     -0.30952235	    -17.88585805	     -0.97872330	      0.00000000	      0.00000000	      0.00000000	      0.00000000	      0.00000000	      0.03138511	      0.01391130	     -0.00402260	    -16.62924611	     46.18768569	    -35.29604822	    116.68338862	     89.99559364	      0.00000000	      0.00000000	      0.00910726	     -0.01158815	     -0.00323543	     -4.61854160	     54.40256635	     -6.49936160	     40.42999754	     89.99559364	      0.00000000	      0.00000000
      0.85000000	    -33.58165943	      5.89537519	    -85.95743786	     -0.10684096	      0.93088741	     -1.00236770	     35.33601044	    -18.42926808	    -12.87182824	     36.20003344	      0.63180977	     -8.84091283	      0.50086259	      0.00000000	     33.94605815	    -29.55055713	     25.97019700	     53.38154222	      0.93168367	     24.63026621	    -12.85696591	      0.00000000	     -0.04557816	     -1.64439479	     -0.13683610	     -0.08464320	     -2.18704508	     -0.14538836	     -0.07488036	     -3.99818150	     -0.14538836	     -0.05209128	     -3.99818150	     -0.11973159	     -0.04232388	     -3.35324986	     -0.11117933	     -0.02604336	     -2.54716754	     -0.10262708	     -0.32556025	    -18.60172279	     -0.76104134	      0.00000000	      0.00000000	      0.00000000	      0.00000000	      0.00000000	      0.03287289	      0.01534601	     -0.00394313	    -15.15822159	     45.82072292	    -37.05826777	    117.59103078	     89.99559364	      0.00000000	      0.00000000	      0.01037886	     -0.01071596	     -0.00326987	     -4.02604854	     55.29346870	     -7.01135938	     40.45286373	     89.99559364	      0.00000000	      0.00000000
      0.86666670	    -33.25305178	      6.80436264	    -85.64250311	     -0.11028824	      0.93101612	     -1.00553081	     37.79948770	    -17.98372827	    -12.77385575	     36.85435858	      0.64322990	     -9.24604975	     -1.14840632	      0.00000000	     34.95473837	    -29.28310541	     26.08118625	     52.80347963	      0.92159458	     24.37333699	    -12.20655603	      0.00000000	     -0.04959930	     -1.70882926	     -0.21806110	     -0.09211086	     -2.27274291	     -0.23168992	     -0.08148669	     -4.15484745	     -0.23168992	     -0.05668704	     -4.15484745	     -0.19080346	     -0.04605791	     -3.48464462	     -0.17717465	     -0.02834104	     -2.64697652	     -0.16354583	     -0.35428283	    -19.33061831	     -1.21279043	      0.00000000	      0.00000000	      0.00000000	      0.00000000	      0.00000000	      0.03306177	      0.01690866	     -0.00402140	    -12.02376151	     45.62549513	    -39.35151411	    118.13030347	     89.99559364	      0.00000000	      0.00000000	      0.00874477	     -0.00964943	     -0.00337055	     -3.49387103	     56.32028498	     -7.75027654	     40.30741582	     89.99559364	      0.00000000	      0.00000000
      0.88333330	    -32.88075228	      7.98732541	    -85.27166107	     -0.11367944	      0.93043688	     -1.00933667	     40.75523101	    -17.45903490	    -12.95833328	     37.83853883	      0.66040709	     -9.34053065	     -2.47486721	      0.00000000	     36.38152484	    -28.91649192	     26.26828287	     52.25843045	      0.91208167	     23.92210841	    -11.43008047	      0.00000000	     -0.05434587	     -1.76655772	     -0.22493685	     -0.10092572	     -2.34952177	     -0.23899540	     -0.08928484	     -4.29520845	     -0.23899540	     -0.06211190	     -4.29520845	     -0.19681975	     -0.05046558	     -3.60236451	     -0.18276119	     -0.03105323	     -2.73639791	     -0.16870264	     -0.38818715	    -19.98365426	     -1.25103129	      0.00000000	      0.00000000	      0.00000000	      0.00000000	      0.00000000	      0.03536587	      0.01914270	     -0.00399692	    -10.88241439	     45.62873931	    -40.77901320	    119.48652978	     89.99559364	      0.00000000	      0.00000000	      0.01072335	     -0.00848890	     -0.00349627	     -2.84731521	     57.35466398	     -7.86256309	     40.88991069	     89.99559364	      0.00000000	      0.00000000
      0.90000000	    -32.38470306	      9.10962341	    -84.88590463	     -0.11637621	      0.93025734	     -1.01219385	     43.60829536	    -16.75480694	    -13.23492352	     38.79467894	      0.67709488	     -9.61673881	     -4.02535558	      0.00000000	     37.61396908	    -28.46652654	     26.29409024	     51.53170224	      0.89939787	     23.51672093	    -10.59748712	      0.00000000	     -0.06128052	     -1.83019494	     -0.40731712	     -0.11380405	     -2.43415927	     -0.43277444	     -0.10067776	     -4.44993597	     -0.43277444	     -0.07003750	     -4.44993597	     -0.35640248	     -0.05690509	     -3.73213352	     -0.33094516	     -0.03501569	     -2.83497196	     -0.30548784	     -0.43772059	    -20.70353117	     -2.26537565	      0.00000000	      0.00000000	      0.00000000	      0.00000000	      0.00000000	      0.03507944	      0.02041953	     -0.00397561	     -7.05227185	     45.33668049	    -43.66760644	    120.33526939	     89.99559364	      0.00000000	      0.00000000	      0.00878216	     -0.00669579	     -0.00362149	     -2.71409777	     58.34490657	     -8.30063071	     40.85476891	     89.99559364	      0.00000000	      0.00000000
      0.91666670	    -31.98151397	     10.35912955	    -84.27973716	     -0.11797687	      0.92996179	     -1.01293018	     46.34574478	    -15.88823650	    -13.78973683	     39.80927151	      0.69480286	     -8.63685243	     -3.99425057	      0.00000000	     38.92825041	    -27.92711980	     26.52107430	     50.68910496	      0.88469178	     23.10036566	     -9.84900690	      0.00000000	     -0.06702853	     -1.87316376	     -0.47586781	     -0.12447868	     -2.49130780	     -0.50560955	     -0.11012117	     -4.55441037	     -0.50560955	     -0.07660690	     -4.55441037	     -0.41638433	     -0.06224269	     -3.81975554	     -0.38664259	     -0.03830010	     -2.90153066	     -0.35690086	     -0.47877806	    -21.18960308	     -2.64663399	      0.00000000	      0.00000000	      0.00000000	      0.00000000	      0.00000000	      0.03581778	      0.02050890	     -0.00391718	     -6.06247574	     45.25879316	    -45.38132073	    122.09645542	     89.99559364	      0.00000000	      0.00000000	      0.01012384	     -0.00539466	     -0.00370741	     -2.11578179	     59.18490861	     -8.28591299	     41.37611551	     89.99559364	      0.00000000	      0.00000000
      0.93333330	    -31.57733624	     11.47285927	    -83.60829581	     -0.11830464	      0.93022190	     -1.01090249	     48.59894605	    -14.80908460	    -14.27290969	     40.82965562	      0.71261192	     -6.58286332	     -2.30929773	      0.00000000	     39.77345823	    -27.32134576	     26.72398469	     49.64523667	      0.86647284	     22.74674607	     -9.29257008	      0.00000000	     -0.07107986	     -1.90443750	     -0.58115341	     -0.13200240	     -2.53290187	     -0.61747550	     -0.11677710	     -4.63044933	     -0.61747550	     -0.08123717	     -4.63044933	     -0.50850923	     -0.06600475	     -3.88352894	     -0.47218714	     -0.04061503	     -2.94997368	     -0.43586506	     -0.50771630	    -21.54337784	     -3.23220091	      0.00000000	      0.00000000	      0.00000000	      0.00000000	      0.00000000	      0.03573025	      0.01935472	     -0.00377635	     -5.03874270	     45.02658611	    -46.90836723	    123.85842435	     89.99559364	      0.00000000	      0.00000000	      0.01056020	     -0.00444194	     -0.00376519	     -1.71080885	     59.79797077	     -8.18846766	     41.59565300	     89.99559364	      0.00000000	      0.00000000
      0.95000000	    -31.14146977	     12.33583886	    -82.98961084	     -0.11695697	      0.93127200	     -1.00502480	     50.13049180	    -13.52895634	    -14.61414351	     41.89983962	      0.73129016	     -3.53296044	      1.20799179	      0.00000000	     39.81354953	    -26.67450972	     26.80903661	     48.37719723	      0.84434137	     22.43767388	     -9.21496688	      0.00000000	     -0.07190215	     -1.92604918	     -0.67774907	     -0.13352948	     -2.56164540	     -0.72010839	     -0.11812804	     -4.68299597	     -0.72010839	     -0.08217696	     -4.68299597	     -0.59303044	     -0.06676833	     -3.92759948	     -0.55067112	     -0.04108489	     -2.98345017	     -0.50831181	     -0.51358984	    -21.78785349	     -3.76943702	      0.00000000	      0.00000000	      0.00000000	      0.00000000	      0.00000000	      0.03487040	      0.01672002	     -0.00365094	     -4.22810331	     44.78402811	    -47.64901022	    125.26517417	     89.99559364	      0.00000000	      0.00000000	      0.01055608	     -0.00407755	     -0.00378570	     -1.49670481	     60.10499457	     -7.96554062	     41.57282460	     89.99559364	      0.00000000	      0.00000000
      0.96666670	    -30.61005890	     12.90843782	    -82.64139804	     -0.11433503	      0.93324359	     -0.99539089	     50.91819817	    -11.91502270	    -14.59456036	     42.95464604	      0.74970000	     -0.25566037	      6.29591566	      0.00000000	     38.83306108	    -26.06679929	     26.57608787	     46.87778864	      0.81817176	     22.31269011	     -9.63572009	      0.00000000	     -0.07007860	     -1.94752387	     -0.69717641	     -0.13014296	     -2.59020675	     -0.74074994	     -0.11513213	     -4.73520955	     -0.74074994	     -0.08009283	     -4.73520955	     -0.61002936	     -0.06507499	     -3.97139068	     -0.56645583	     -0.04004291	     -3.01671448	     -0.52288231	     -0.50056442	    -22.03077956	     -3.87748604	      0.00000000	      0.00000000	      0.00000000	      0.00000000	      0.00000000	      0.03353796	      0.01206439	     -0.00357940	     -3.96444499	     44.45416579	    -47.64438750	    126.32901986	     89.99559364	      0.00000000	      0.00000000	      0.01075496	     -0.00452322	     -0.00373103	     -1.39638844	     60.11319818	     -7.70267147	     41.45807683	     89.99559364	      0.00000000	      0.00000000
      0.98333330	    -29.88622820	     13.21452633	    -82.69801873	     -0.11157768	      0.93588355	     -0.98401685	     51.16821942	     -9.91088630	    -14.15069536	     43.88872694	      0.76600279	      2.78305364	     12.51858800	      0.00000000	     36.96108121	    -25.49242766	     25.83075287	     45.24655280	      0.78970132	     22.37819536	    -10.38841195	      0.00000000	     -0.06673422	     -1.97592424	     -0.64037420	     -0.12393211	     -2.62797924	     -0.68039759	     -0.10963764	     -4.80426220	     -0.68039759	     -0.07627054	     -4.80426220	     -0.56032743	     -0.06196939	     -4.02930471	     -0.52030404	     -0.03813193	     -3.06070665	     -0.48028065	     -0.47667583	    -22.35205020	     -3.56156919	      0.00000000	      0.00000000	      0.00000000	      0.00000000	      0.00000000	      0.03154259	      0.00713125	     -0.00349129	     -3.94435346	     43.95314016	    -46.67564000	    126.85094739	     89.99559364	      0.00000000	      0.00000000	      0.01126859	     -0.00537351	     -0.00362115	     -1.50316897	     59.80467783	     -7.42752873	     41.17478492	     89.99559364	      0.00000000	      0.00000000
